<?xml version="1.0" standalone="no"?>
<!DOCTYPE svg PUBLIC "-//W3C//DTD SVG 20010904//EN"
 "http://www.w3.org/TR/2001/REC-SVG-20010904/DTD/svg10.dtd">
<svg version="1.0" xmlns="http://www.w3.org/2000/svg"
 width="551.000000pt" height="551.000000pt" viewBox="0 0 551.000000 551.000000"
 preserveAspectRatio="xMidYMid meet">
<metadata>
Created by potrace 1.14, written by Peter Selinger 2001-2017
</metadata>
<g transform="translate(0.000000,551.000000) scale(0.100000,-0.100000)"
fill="#000000" stroke="none">
<path d="M2619 5496 c-2 -2 -24 -6 -49 -9 -50 -6 -97 -16 -120 -24 -19 -8 -18
-8 -60 -17 -52 -12 -210 -90 -282 -139 -77 -52 -225 -196 -264 -257 -16 -25
-31 -47 -35 -50 -14 -13 -71 -122 -99 -193 -85 -212 -106 -416 -65 -627 2 -14
7 -38 11 -55 23 -118 107 -304 186 -409 48 -64 161 -186 172 -186 3 0 16 -10
29 -22 52 -49 86 -70 202 -128 168 -83 289 -112 475 -113 156 -2 239 12 380
61 363 127 629 439 716 842 17 75 22 264 10 355 -48 371 -280 698 -611 862
-84 42 -177 72 -290 95 -47 9 -299 20 -306 14z m236 -432 c209 -40 388 -177
484 -370 50 -102 71 -203 68 -334 -5 -196 -64 -337 -197 -470 -135 -134 -284
-199 -465 -202 -289 -4 -547 171 -649 443 -34 90 -40 129 -40 249 0 110 4 142
31 225 75 236 301 429 540 461 27 3 50 8 51 9 5 5 141 -4 177 -11z"/>
<path d="M1990 2902 c-123 -16 -242 -98 -312 -214 -26 -42 -60 -153 -56 -184
l3 -28 905 0 c498 -1 923 3 945 7 22 4 47 8 55 8 16 1 55 15 80 30 8 5 25 13
36 18 12 5 46 34 77 63 67 66 118 167 124 249 l5 56 -918 -1 c-506 0 -930 -2
-944 -4z"/>
<path d="M1676 2132 c-10 -2 -15 -9 -13 -15 7 -17 366 -856 381 -892 8 -16 33
-75 56 -130 23 -55 51 -120 62 -145 28 -64 30 -70 99 -230 59 -140 73 -174
103 -242 8 -18 35 -82 61 -143 25 -60 53 -126 61 -145 9 -19 30 -69 48 -110
l32 -75 203 0 202 0 50 115 c28 63 57 131 64 150 7 19 27 65 44 102 17 36 31
72 31 80 0 8 4 18 9 24 4 5 50 108 101 229 51 121 105 248 121 283 16 35 29
65 29 68 0 2 9 23 19 47 49 106 181 425 181 436 0 6 5 11 10 11 6 0 10 6 10
14 0 12 41 111 101 243 10 24 19 45 19 48 0 2 11 29 25 59 26 57 47 109 46
114 -1 1 10 25 24 52 14 28 22 50 18 51 -52 6 -447 -1 -453 -7 -5 -5 -47 -98
-93 -207 -47 -109 -87 -200 -90 -203 -4 -4 -217 73 -444 162 -34 13 -64 24
-67 24 -4 0 -25 9 -49 19 -23 11 -139 55 -257 100 -118 44 -232 87 -254 96
-31 13 -80 17 -256 18 -119 1 -224 0 -234 -1z m731 -594 c15 -6 30 -12 33 -12
7 -2 388 -152 440 -174 14 -6 58 -23 98 -38 39 -15 72 -31 72 -36 0 -9 -38
-104 -69 -173 -10 -22 -37 -85 -60 -140 -23 -55 -46 -109 -51 -120 -24 -55
-59 -135 -76 -177 -10 -27 -22 -48 -25 -48 -4 0 -17 24 -29 53 -36 86 -47 110
-63 147 -65 149 -260 603 -262 610 -1 3 -11 27 -23 53 -32 71 -31 74 15 55z"/>
</g>
</svg>
